<svg height="100%" version="1.1" width="100%" xmlns="http://www.w3.org/2000/svg" preserveAspectRatio="xMidYMid meet" viewBox="0 0 600 442" xmlns:xlink="http://www.w3.org/1999/xlink"><desc>Created with Snap</desc><defs/><g id="root" contentwidth="266" contentheight="238.39999999999998">
          <rect class="background" height="2000%" width="2000%" y="-1000%" x="-1000%" style="" fill="#ffffff"/>
          <g class="content" id="content" transform="matrix(1,0,0,1,-1,4.8)">
            <g class="icon">
            <svg height="220" version="1.1" width="220" xmlns="http://www.w3.org/2000/svg" x="214" y="97" preserveAspectRatio="none" transform="matrix(1,0,0,1,0,0)"><desc>Created with Snap</desc><defs/><svg xmlns="http://www.w3.org/2000/svg" viewBox="214 97 220 220"><path d="M355.829 145.08c33.9 0 61.444 27.206 61.992 60.974l-.001.025h.009v61.927l-.008-.952c-.486-29.978-22.25-54.784-50.847-59.975H291.83c-34.242 0-62-27.758-62-62h126Z" id="prefix-5f5-形状结合备份" fill="#F14AA7" transform="scale(-1 1) rotate(-45 0 988.335)"/></svg></svg><svg height="220" version="1.1" width="220" xmlns="http://www.w3.org/2000/svg" x="168" y="97" preserveAspectRatio="none" transform="matrix(1,0,0,1,0,0)"><desc>Created with Snap</desc><defs/><svg xmlns="http://www.w3.org/2000/svg" viewBox="168 97 220 220"><path d="M310.08 145.08c33.899 0 61.444 27.206 61.991 60.974v.025h.009v61.927l-.009-.952c-.486-29.978-22.249-54.784-50.846-59.975H246.08c-34.242 0-62-27.758-62-62h126Z" id="prefix-w1A-形状结合" fill="#FFC26A" transform="rotate(-45 278.08 206.543)"/></svg></svg><svg height="179" version="1.1" width="179" xmlns="http://www.w3.org/2000/svg" x="253" y="140" preserveAspectRatio="none" transform="matrix(1,0,0,1,0,0)"><desc>Created with Snap</desc><defs/><svg xmlns="http://www.w3.org/2000/svg" viewBox="253 140 179 179"><path d="M344.926 167.207c33.9 0 61.445 27.206 61.992 60.975l.008 1.025v61.926l-.008-.951c-.542-33.431-27.544-60.43-60.977-60.967l-.902-.008h-5.113c-34.241 0-62-27.758-62-62h67Z" id="prefix-wiG-形状结合" fill="#660CFF" transform="rotate(-45 342.426 229.17)"/></svg></svg></g>
            <g id="icon_name_and_slogan_gap">
            </g>
            <g class="name_and_slogan" id="name_and_slogan_id">
              <g class="name"><g id="nameDefaultGroup"><path d="M231.1 289.6 L240.8 293 L228.1 323.4 Q225.6 329.6 222.2 332.5 Q218.9 335.4 213.1 335.4 L213.1 335.4 L210.5 328 Q213.3 327.6 215.9 326.2 L215.9 326.2 Q217 325.6 217.9 324.4 Q218.9 323.2 219.3 321.8 L219.3 321.8 L207.3 293.2 L216.7 289.6 L224.1 310.9 L231.1 289.6 M264.3 315.9 Q263 318.4 260.3 319.8 Q257.6 321.1 253.9 321.1 L253.9 321.1 Q250.6 321.1 247.9 320 Q245.3 318.8 243.8 316.7 Q242.3 314.5 242.3 311.8 L242.3 311.8 Q242.3 309.4 243.9 307.4 Q245.5 305.4 248.4 303.9 L248.4 303.9 Q251.3 302.5 255.2 301.7 Q259.2 300.9 263.8 300.9 L263.8 300.9 Q263.8 296.8 258.5 296.8 L258.5 296.8 Q256.5 296.8 253.3 297.6 Q250 298.4 247.6 299.5 L247.6 299.5 L244.3 293.4 Q247.7 291.8 251.9 290.9 Q256.1 289.9 259.9 289.9 L259.9 289.9 Q275.6 289.9 275.6 302.5 L275.6 302.5 L275.5 308.2 Q275.5 311.2 275.9 313.3 Q276.4 315.4 277.6 317.8 L277.6 317.8 L267.1 321.1 Q266.1 320.1 265.3 318.6 Q264.5 317.1 264.3 315.9 L264.3 315.9 M257.6 313.5 Q263.8 313.5 263.8 305.6 L263.8 305.6 Q258.6 306 256.3 306.9 Q253.9 307.9 253.9 310.1 L253.9 310.1 Q253.9 311.7 254.9 312.6 Q255.9 313.5 257.6 313.5 L257.6 313.5 M291.7 295 Q293.9 292.6 296.5 291.3 Q299.2 289.9 301.9 289.9 L301.9 289.9 Q308.3 289.9 311.2 293.6 Q314 297.3 314 303.6 L314 303.6 L314 320.3 L302.7 320.3 L302.7 303.5 Q302.7 300.6 301 299.1 Q299.3 297.7 296.7 297.7 L296.7 297.7 Q294.5 297.7 293 299.4 Q291.4 301.2 291.4 303.7 L291.4 303.7 L291.4 320.3 L280 320.3 L280 290.8 L291.8 290.8 L291.7 295 M338.5 315.9 Q337.1 318.4 334.5 319.8 Q331.8 321.1 328.1 321.1 L328.1 321.1 Q324.7 321.1 322.1 320 Q319.4 318.8 317.9 316.7 Q316.4 314.5 316.4 311.8 L316.4 311.8 Q316.4 309.4 318.1 307.4 Q319.7 305.4 322.6 303.9 L322.6 303.9 Q325.4 302.5 329.4 301.7 Q333.4 300.9 338 300.9 L338 300.9 Q337.9 296.8 332.6 296.8 L332.6 296.8 Q330.7 296.8 327.4 297.6 Q324.2 298.4 321.7 299.5 L321.7 299.5 L318.5 293.4 Q321.8 291.8 326 290.9 Q330.2 289.9 334.1 289.9 L334.1 289.9 Q349.8 289.9 349.8 302.5 L349.8 302.5 L349.6 308.2 Q349.6 311.2 350.1 313.3 Q350.6 315.4 351.8 317.8 L351.8 317.8 L341.3 321.1 Q340.3 320.1 339.5 318.6 Q338.7 317.1 338.5 315.9 L338.5 315.9 M331.8 313.5 Q338 313.5 338 305.6 L338 305.6 Q332.8 306 330.4 306.9 Q328.1 307.9 328.1 310.1 L328.1 310.1 Q328.1 311.7 329.1 312.6 Q330.1 313.5 331.8 313.5 L331.8 313.5 M365.9 295 Q368 292.6 370.7 291.3 Q373.4 289.9 376.1 289.9 L376.1 289.9 Q382.4 289.9 385.3 293.6 Q388.2 297.3 388.2 303.6 L388.2 303.6 L388.2 320.3 L376.9 320.3 L376.9 303.5 Q376.9 300.6 375.1 299.1 Q373.4 297.7 370.9 297.7 L370.9 297.7 Q368.6 297.7 367.1 299.4 Q365.6 301.2 365.6 303.7 L365.6 303.7 L365.6 320.3 L354.2 320.3 L354.2 290.8 L366 290.8 L365.9 295 Z" style="" fill="#2f1a5d" transform="matrix(1,0,0,1,0,0)"/></g></g>
              <g class="slogan"><g id="sloganDefaultGroup"/></g>
            </g>
            <g class="border">
            </g>
          </g>
          
          <defs id="defs">
            <mask xmlns="http://www.w3.org/2000/svg" id="mask">
                <rect id="showAll" fill="white" x="168" y="97" width="266" height="222"/>
                <rect id="hideNameBg" fill="black" x="0" y="0" width="0" height="0" stroke-width="2" stroke="black"/>
                <rect id="hideSloganBg" fill="black" x="0" y="0" width="0" height="0" stroke-width="2" stroke="black"/>
            </mask>
          </defs>
          
        </g>
        </svg>